<?xml version="1.0" encoding="UTF-8" standalone="no"?>
<svg
   width="229.69981"
   zoomAndPan="magnify"
   viewBox="0 0 172.27486 45.209343"
   height="60.279125"
   preserveAspectRatio="xMidYMid"
   version="1.0"
   id="svg3721"
   sodipodi:docname="4 2.svg"
   inkscape:version="1.2 (dc2aedaf03, 2022-05-15)"
   xmlns:inkscape="http://www.inkscape.org/namespaces/inkscape"
   xmlns:sodipodi="http://sodipodi.sourceforge.net/DTD/sodipodi-0.dtd"
   xmlns="http://www.w3.org/2000/svg"
   xmlns:svg="http://www.w3.org/2000/svg">
  <sodipodi:namedview
     id="namedview3723"
     pagecolor="#ffffff"
     bordercolor="#000000"
     borderopacity="0.25"
     inkscape:showpageshadow="2"
     inkscape:pageopacity="0.0"
     inkscape:pagecheckerboard="0"
     inkscape:deskcolor="#d1d1d1"
     showgrid="false"
     inkscape:zoom="0.4335"
     inkscape:cx="-550.17301"
     inkscape:cy="342.56055"
     inkscape:window-width="1920"
     inkscape:window-height="1112"
     inkscape:window-x="-8"
     inkscape:window-y="-8"
     inkscape:window-maximized="1"
     inkscape:current-layer="svg3721" />
  <defs
     id="defs3587">
    <g
       id="g3585">
      <g
         id="id1" />
      <g
         id="id2" />
    </g>
  </defs>
  <g
     fill="#34255d"
     fill-opacity="1"
     id="g3601"
     transform="translate(-105.16763,-176.3844)">
    <g
       transform="translate(101.76138,202.40003)"
       id="g3599">
      <g
         id="g3597">
        <path
           d="m 7.765625,-3.953125 h 11.21875 V 0 H 3.40625 v -25.90625 h 4.359375 z m 0,0"
           id="path3595" />
      </g>
    </g>
  </g>
  <g
     fill="#34255d"
     fill-opacity="1"
     id="g3609"
     transform="translate(-105.16763,-176.3844)">
    <g
       transform="translate(124.40328,202.40003)"
       id="g3607">
      <g
         id="g3605">
        <path
           d="M 20.125,-5.84375 H 7.0625 L 4.59375,0 h -4.5625 l 11.4375,-25.90625 h 4.484375 L 27.265625,0 h -4.65625 z m -1.65625,-3.890625 -4.890625,-11.5 -4.890625,11.5 z m 0,0"
           id="path3603" />
      </g>
    </g>
  </g>
  <g
     fill="#940608"
     fill-opacity="1"
     id="g3617"
     transform="translate(-105.16763,-176.3844)">
    <g
       transform="translate(154.5895,202.40003)"
       id="g3615">
      <g
         id="g3613">
        <path
           d="m 14.875,-26.015625 c 1.820312,0 3.601562,0.355469 5.34375,1.0625 1.738281,0.699219 3.238281,1.679687 4.5,2.9375 l -2.5625,3.1875 c -0.9375,-1.007813 -2.046875,-1.8125 -3.328125,-2.40625 -1.28125,-0.59375 -2.574219,-0.890625 -3.875,-0.890625 -2.59375,0 -4.789063,0.886719 -6.578125,2.65625 -1.78125,1.761719 -2.671875,3.90625 -2.671875,6.4375 0,2.574219 0.890625,4.742188 2.671875,6.5 1.789062,1.761719 3.984375,2.640625 6.578125,2.640625 2.6875,0 5.085937,-1.019531 7.203125,-3.0625 L 24.75,-4.0625 c -1.335938,1.304688 -2.890625,2.339844 -4.671875,3.109375 -1.773437,0.761719 -3.558594,1.140625 -5.359375,1.140625 -3.792969,0 -6.984375,-1.265625 -9.578125,-3.796875 -2.585937,-2.53125 -3.875,-5.65625 -3.875,-9.375 0,-3.675781 1.3125,-6.765625 3.9375,-9.265625 2.625,-2.507812 5.847656,-3.765625 9.671875,-3.765625 z m 0,0"
           id="path3611" />
      </g>
    </g>
  </g>
  <g
     fill="#34255d"
     fill-opacity="1"
     id="g3625"
     transform="translate(-105.16763,-176.3844)">
    <g
       transform="translate(183.25356,202.40003)"
       id="g3623">
      <g
         id="g3621">
        <path
           d="M 7.765625,0 H 3.40625 v -25.90625 h 4.359375 z m 0,0"
           id="path3619" />
      </g>
    </g>
  </g>
  <g
     fill="#34255d"
     fill-opacity="1"
     id="g3633"
     transform="translate(-105.16763,-176.3844)">
    <g
       transform="translate(197.31237,202.40003)"
       id="g3631">
      <g
         id="g3629">
        <path
           d="m 3.40625,-25.90625 h 11.25 c 2.6875,0 4.804688,0.578125 6.359375,1.734375 1.550781,1.148437 2.328125,2.730469 2.328125,4.75 0,1.460937 -0.40625,2.699219 -1.21875,3.71875 -0.8125,1.023437 -1.921875,1.703125 -3.328125,2.046875 1.726563,0.304688 3.082031,1.03125 4.0625,2.1875 0.988281,1.15625 1.484375,2.609375 1.484375,4.359375 0,2.21875 -0.839844,3.960937 -2.515625,5.21875 C 20.148438,-0.628906 17.84375,0 14.90625,0 h -11.5 z m 4.359375,3.890625 v 6.84375 H 14.4375 c 1.375,0 2.457031,-0.304687 3.25,-0.921875 0.789062,-0.613281 1.1875,-1.460938 1.1875,-2.546875 0,-1.09375 -0.390625,-1.925781 -1.171875,-2.5 -0.78125,-0.582031 -1.871094,-0.875 -3.265625,-0.875 z m 0,10.6875 v 7.4375 H 14.4375 c 1.71875,0 3.050781,-0.320313 4,-0.96875 0.957031,-0.65625 1.4375,-1.585937 1.4375,-2.796875 0,-1.132812 -0.484375,-2.03125 -1.453125,-2.6875 C 17.460938,-11 16.132812,-11.328125 14.4375,-11.328125 Z m 0,0"
           id="path3627" />
      </g>
    </g>
  </g>
  <g
     fill="#34255d"
     fill-opacity="1"
     id="g3641"
     transform="translate(-105.16763,-176.3844)">
    <g
       transform="translate(226.3176,202.40003)"
       id="g3639">
      <g
         id="g3637">
        <path
           d="m 7.765625,-3.953125 h 11.21875 V 0 H 3.40625 v -25.90625 h 4.359375 z m 0,0"
           id="path3635" />
      </g>
    </g>
  </g>
  <g
     fill="#34255d"
     fill-opacity="1"
     id="g3649"
     transform="translate(-105.16763,-176.3844)">
    <g
       transform="translate(248.95951,202.40003)"
       id="g3647">
      <g
         id="g3645">
        <path
           d="M 21.90625,-21.984375 H 7.765625 v 7 h 12.65625 V -11.0625 H 7.765625 v 7.140625 H 22.34375 V 0 H 3.40625 v -25.90625 h 18.5 z m 0,0"
           id="path3643" />
      </g>
    </g>
  </g>
  <g
     fill="#34255d"
     fill-opacity="1"
     id="g3657"
     transform="translate(-105.16763,-176.3844)">
    <g
       transform="translate(187.49999,221.5)"
       id="g3655">
      <g
         id="g3653">
        <path
           d="M 6.421875,-1.546875 H 2.75 L 2.140625,0 H -0.0625 l 3.625,-8.40625 H 5.765625 L 9.296875,0 h -2.28125 z m -0.625,-1.625 L 4.59375,-6.28125 3.375,-3.171875 Z m 0,0"
           id="path3651" />
      </g>
    </g>
  </g>
  <g
     fill="#34255d"
     fill-opacity="1"
     id="g3665"
     transform="translate(-105.16763,-176.3844)">
    <g
       transform="translate(200.25889,221.5)"
       id="g3663">
      <g
         id="g3661">
        <path
           d="m 0.84375,-8.40625 h 3.609375 c 1.320313,0 2.394531,0.390625 3.21875,1.171875 0.832031,0.773437 1.25,1.78125 1.25,3.03125 0,1.242187 -0.421875,2.25 -1.265625,3.03125 C 6.8125,-0.390625 5.71875,0 4.375,0 H 0.84375 Z m 2.125,1.703125 v 5 H 4.5 c 0.65625,0 1.191406,-0.226563 1.609375,-0.6875 C 6.535156,-2.847656 6.75,-3.445312 6.75,-4.1875 6.75,-4.925781 6.523438,-5.53125 6.078125,-6 5.640625,-6.46875 5.082031,-6.703125 4.40625,-6.703125 Z m 0,0"
           id="path3659" />
      </g>
    </g>
  </g>
  <g
     fill="#34255d"
     fill-opacity="1"
     id="g3673"
     transform="translate(-105.16763,-176.3844)">
    <g
       transform="translate(212.98182,221.5)"
       id="g3671">
      <g
         id="g3669">
        <path
           d="M 5.453125,0 H 3.25 l -3.265625,-8.40625 h 2.28125 l 2.15625,6.1875 2.140625,-6.1875 h 2.203125 z m 0,0"
           id="path3667" />
      </g>
    </g>
  </g>
  <g
     fill="#34255d"
     fill-opacity="1"
     id="g3681"
     transform="translate(-105.16763,-176.3844)">
    <g
       transform="translate(225.2492,221.5)"
       id="g3679">
      <g
         id="g3677">
        <path
           d="m 2.96875,0 h -2.125 v -8.40625 h 2.125 z m 0,0"
           id="path3675" />
      </g>
    </g>
  </g>
  <g
     fill="#34255d"
     fill-opacity="1"
     id="g3689"
     transform="translate(-105.16763,-176.3844)">
    <g
       transform="translate(232.58943,221.5)"
       id="g3687">
      <g
         id="g3685">
        <path
           d="m 4.0625,-8.5 c 1.257812,0 2.363281,0.3125 3.3125,0.9375 l -0.796875,1.671875 c -0.4375,-0.257813 -0.914063,-0.46875 -1.421875,-0.625 -0.5,-0.164063 -0.921875,-0.25 -1.265625,-0.25 -0.617187,0 -0.921875,0.203125 -0.921875,0.609375 0,0.261719 0.148438,0.476562 0.453125,0.640625 0.300781,0.15625 0.671875,0.292969 1.109375,0.40625 0.4375,0.117187 0.867188,0.257813 1.296875,0.421875 0.4375,0.167969 0.804687,0.433594 1.109375,0.796875 C 7.25,-3.523438 7.40625,-3.0625 7.40625,-2.5 c 0,0.8125 -0.320312,1.449219 -0.953125,1.90625 -0.625,0.449219 -1.429687,0.671875 -2.40625,0.671875 -0.699219,0 -1.390625,-0.1171875 -2.078125,-0.359375 C 1.289062,-0.519531 0.703125,-0.847656 0.203125,-1.265625 l 0.828125,-1.65625 c 0.425781,0.375 0.925781,0.683594 1.5,0.921875 0.570312,0.230469 1.082031,0.34375 1.53125,0.34375 0.34375,0 0.609375,-0.0625 0.796875,-0.1875 0.195313,-0.125 0.296875,-0.304688 0.296875,-0.546875 0,-0.226563 -0.109375,-0.421875 -0.328125,-0.578125 C 4.609375,-3.125 4.332031,-3.238281 4,-3.3125 3.675781,-3.394531 3.320312,-3.5 2.9375,-3.625 2.550781,-3.75 2.191406,-3.882812 1.859375,-4.03125 1.535156,-4.1875 1.265625,-4.429688 1.046875,-4.765625 0.828125,-5.097656 0.71875,-5.5 0.71875,-5.96875 c 0,-0.757812 0.304688,-1.367188 0.921875,-1.828125 C 2.253906,-8.265625 3.0625,-8.5 4.0625,-8.5 Z m 0,0"
           id="path3683" />
      </g>
    </g>
  </g>
  <g
     fill="#34255d"
     fill-opacity="1"
     id="g3697"
     transform="translate(-105.16763,-176.3844)">
    <g
       transform="translate(243.83781,221.5)"
       id="g3695">
      <g
         id="g3693">
        <path
           d="m 4.828125,-8.46875 c 1.300781,0 2.382813,0.40625 3.25,1.21875 0.863281,0.8125 1.296875,1.824219 1.296875,3.03125 0,1.230469 -0.4375,2.257812 -1.3125,3.078125 C 7.195312,-0.316406 6.113281,0.09375 4.8125,0.09375 3.519531,0.09375 2.441406,-0.3125 1.578125,-1.125 0.710938,-1.945312 0.28125,-2.976562 0.28125,-4.21875 c 0,-1.21875 0.429688,-2.226562 1.296875,-3.03125 0.863281,-0.8125 1.945313,-1.21875 3.25,-1.21875 z M 4.84375,-6.6875 c -0.65625,0 -1.21875,0.242188 -1.6875,0.71875 -0.460938,0.480469 -0.6875,1.074219 -0.6875,1.78125 0,0.699219 0.234375,1.292969 0.703125,1.78125 0.46875,0.480469 1.023437,0.71875 1.671875,0.71875 0.644531,0 1.191406,-0.238281 1.640625,-0.71875 0.457031,-0.488281 0.6875,-1.082031 0.6875,-1.78125 0,-0.707031 -0.230469,-1.300781 -0.6875,-1.78125 C 6.035156,-6.445312 5.488281,-6.6875 4.84375,-6.6875 Z m 0,0"
           id="path3691" />
      </g>
    </g>
  </g>
  <g
     fill="#34255d"
     fill-opacity="1"
     id="g3705"
     transform="translate(-105.16763,-176.3844)">
    <g
       transform="translate(257.0163,221.5)"
       id="g3703">
      <g
         id="g3701">
        <path
           d="m 5.90625,0 -1.25,-2.359375 H 2.96875 V 0 h -2.125 v -8.40625 h 3.75 c 1.113281,0 1.972656,0.257812 2.578125,0.765625 0.613281,0.511719 0.921875,1.234375 0.921875,2.171875 0,1.292969 -0.511719,2.195312 -1.53125,2.703125 L 8.328125,0 Z m -2.9375,-4.046875 h 1.625 c 0.46875,0 0.828125,-0.113281 1.078125,-0.34375 C 5.929688,-4.617188 6.0625,-4.957031 6.0625,-5.40625 c 0,-0.425781 -0.132812,-0.75 -0.390625,-0.96875 -0.25,-0.226562 -0.609375,-0.34375 -1.078125,-0.34375 h -1.625 z m 0,0"
           id="path3699" />
      </g>
    </g>
  </g>
  <g
     fill="#34255d"
     fill-opacity="1"
     id="g3713"
     transform="translate(-105.16763,-176.3844)">
    <g
       transform="translate(269.22374,221.5)"
       id="g3711">
      <g
         id="g3709">
        <path
           d="M 5.171875,-2.71875 V 0 h -2.125 v -2.65625 l -3.109375,-5.75 h 2.140625 l 2.03125,3.671875 1.96875,-3.671875 H 8.21875 Z m 0,0"
           id="path3707" />
      </g>
    </g>
  </g>
  <g
     fill="#34255d"
     fill-opacity="1"
     id="g3719"
     transform="translate(-105.16763,-176.3844)">
    <g
       transform="translate(280.89835,221.5)"
       id="g3717">
      <g
         id="g3715" />
    </g>
  </g>
</svg>
